<?xml version="1.0" encoding="UTF-8"?>
<svg version="1.1" xmlns="http://www.w3.org/2000/svg" width="1024" height="1024">
<path d="M0 0 C337.92 0 675.84 0 1024 0 C1024 337.92 1024 675.84 1024 1024 C686.08 1024 348.16 1024 0 1024 C0 686.08 0 348.16 0 0 Z " fill="#FEFEFE" transform="translate(0,0)"/>
<path d="M0 0 C0.71239484 -0.00453111 1.42478967 -0.00906223 2.15877223 -0.01373065 C4.54616066 -0.02639188 6.93332146 -0.02475317 9.32073975 -0.02310181 C11.0324686 -0.02908608 12.74419476 -0.0358914 14.45591736 -0.04345703 C19.10691017 -0.06113692 23.75782941 -0.06581332 28.40885258 -0.0670886 C31.3155729 -0.06850991 34.2222745 -0.07277918 37.12899017 -0.07808304 C47.27250863 -0.09659159 57.4159745 -0.10475283 67.55950928 -0.10317993 C77.00939643 -0.10197908 86.45905497 -0.12306816 95.90888429 -0.15466726 C104.02538191 -0.18083899 112.14180493 -0.19154681 120.25834441 -0.19026911 C125.10440207 -0.18975964 129.9502567 -0.19543447 134.79627228 -0.21662521 C139.35670813 -0.23602207 143.91674763 -0.23612219 148.47719765 -0.22159195 C150.1476811 -0.21950438 151.81818944 -0.2242017 153.48863029 -0.23631287 C163.4608764 -0.30391023 170.61745693 -0.07849549 178.67913818 6.51742554 C185.40067406 14.73263605 185.50915968 21.88500324 185.44671631 32.16952515 C185.45214348 33.67333146 185.45926948 35.17713245 185.46795654 36.68092346 C185.48612384 40.74717378 185.47914947 44.81301613 185.4664402 48.87927318 C185.45627631 53.14583948 185.46571543 57.41237207 185.47198486 61.67893982 C185.47925223 68.84350826 185.46969839 76.00791151 185.45062256 83.17245483 C185.42886382 91.43979135 185.43590149 99.70673308 185.45792818 107.97406 C185.47611817 115.08771311 185.47862272 122.2012478 185.4681735 129.31491667 C185.46195723 133.5567452 185.4610511 137.79838858 185.47431946 142.040205 C185.48592964 146.03031699 185.47775886 150.01992341 185.45474243 154.00998116 C185.4494824 155.46878854 185.45092246 156.92763894 185.45979309 158.38642883 C185.51082987 167.63699879 185.08838395 175.31436745 178.96429443 182.60726929 C177.98782959 183.39810913 177.98782959 183.39810913 176.99163818 184.20492554 C176.34323975 184.75019897 175.69484131 185.29547241 175.02679443 185.85726929 C170.34028002 189.00779388 166.37889954 189.52004255 160.77598572 189.53485107 C160.06682001 189.53938219 159.3576543 189.5439133 158.62699872 189.54858172 C156.25653515 189.56121705 153.88630158 189.55960593 151.51580811 189.55795288 C149.81378383 189.56393871 148.11176226 189.57074438 146.40974426 189.57830811 C141.78980129 189.59597051 137.16993242 189.60066361 132.54995894 189.60193968 C129.66216179 189.60336178 126.77438344 189.60763251 123.88659096 189.61293411 C113.80790639 189.63143568 103.72927472 189.63960463 93.65057373 189.63803101 C84.2625812 189.6368298 74.87481864 189.65792778 65.4868843 189.68951833 C57.42132144 189.71568982 49.35583365 189.72639792 41.29022866 189.72512019 C36.4754845 189.72461078 31.6609447 189.73028212 26.8462429 189.75147629 C22.31616166 189.77087319 17.78647941 189.77097326 13.2563839 189.75644302 C11.59718746 189.75435558 9.93796595 189.75905203 8.27881241 189.77116394 C-8.79840099 189.88771786 -8.79840099 189.88771786 -16.31304932 183.30258179 C-21.24126203 177.34864059 -23.07086182 174.26810768 -23.07086182 166.26742554 C-18.45086182 166.26742554 -13.83086182 166.26742554 -9.07086182 166.26742554 C-8.78211182 167.38117554 -8.49336182 168.49492554 -8.19586182 169.64242554 C-7.37844852 173.27033645 -7.37844852 173.27033645 -5.07086182 175.26742554 C-2.02056517 175.57636279 -2.02056517 175.57636279 1.634552 175.52812195 C2.33172604 175.5319475 3.02890008 175.53577304 3.74720061 175.53971452 C6.09486869 175.55007399 8.44229355 175.54604685 10.78997803 175.54208374 C12.46849292 175.54642864 14.14700582 175.55161104 15.82551575 175.55757141 C20.39372425 175.57099777 24.9618502 175.57153597 29.5300746 175.56900811 C33.33981294 175.56794069 37.14953442 175.57281598 40.95926917 175.57761353 C49.94598304 175.58872166 58.93265513 175.58913904 67.91937256 175.58309937 C77.19771402 175.57705965 86.47590383 175.58936754 95.75421941 175.61066943 C103.71265265 175.62827083 111.67103755 175.63428904 119.62948954 175.63103169 C124.38598348 175.62921608 129.1423693 175.63188244 133.89884567 175.64574623 C138.37219306 175.65829594 142.84530375 175.65640767 147.31864738 175.64333534 C148.96177817 175.64096362 150.60492547 175.6437255 152.24803734 175.65195847 C154.48888742 175.66237786 156.72893624 175.65436476 158.96975708 175.64164734 C160.22448507 175.64181508 161.47921307 175.64198282 162.77196312 175.64215565 C166.19750141 175.23557308 167.63540029 174.83223156 169.92913818 172.26742554 C170.53388611 169.95612531 170.53388611 169.95612531 170.44812012 167.31303406 C170.46202663 166.29292142 170.47593315 165.27280878 170.49026108 164.22178364 C170.48523701 163.09900611 170.48021294 161.97622858 170.47503662 160.81942749 C170.48543095 159.61969142 170.49582527 158.41995535 170.50653458 157.18386364 C170.53573419 153.29100236 170.53760396 149.39866694 170.53851318 145.50570679 C170.55250194 143.10607811 170.56827697 140.70645916 170.58587646 138.30685425 C170.63864122 129.39798003 170.65677125 120.48892794 170.67913818 111.57992554 C170.80288818 81.72523804 170.80288818 81.72523804 170.92913818 51.26742554 C107.23913818 51.26742554 43.54913818 51.26742554 -22.07086182 51.26742554 C-22.07086182 12.49535162 -22.07086182 12.49535162 -17.16851807 7.22055054 C-16.4969165 6.65851929 -15.82531494 6.09648804 -15.13336182 5.51742554 C-14.46433838 4.94508179 -13.79531494 4.37273804 -13.10601807 3.78305054 C-8.67312878 0.48178174 -5.57065051 0.01462755 0 0 Z " fill="#057BED" transform="translate(750.0708618164063,413.7325744628906)"/>
<path d="M0 0 C7.59 0 15.18 0 23 0 C24 1 24 1 24.12304783 3.12207127 C24.12212604 4.06506549 24.12120424 5.00805971 24.12025452 5.97962952 C24.12231651 7.59720909 24.12231651 7.59720909 24.12442017 9.24746704 C24.11902725 11.03741592 24.11902725 11.03741592 24.11352539 12.86352539 C24.11367142 14.11212845 24.11381744 15.36073151 24.1139679 16.64717102 C24.11338891 20.08090994 24.10835955 23.51458938 24.10139394 26.94831777 C24.09515998 30.53312459 24.09455657 34.11793213 24.09336853 37.70274353 C24.09025534 44.49550045 24.08204212 51.28824135 24.07201904 58.08099121 C24.06085753 65.81242494 24.05534736 73.54385942 24.05032361 81.27529919 C24.03985949 97.18354234 24.02205982 113.09176848 24 129 C16.41 129 8.82 129 1 129 C0.67 125.7 0.34 122.4 0 119 C-1.4540625 120.36125 -1.4540625 120.36125 -2.9375 121.75 C-12.26480535 129.76920765 -23.6707933 131.20156442 -35.57958984 130.35546875 C-46.24234993 128.78950358 -56.66666437 121.47714171 -63 113 C-71.28633807 99.44240232 -73.06820293 84.25627613 -69.4375 68.875 C-66.30534467 56.80673668 -59.53121584 47.39237228 -48.9296875 40.69140625 C-38.81110499 35.27498855 -26.86343692 34.22278899 -15.75 37.0625 C-11 39 -11 39 -1 46 C-0.67 30.82 -0.34 15.64 0 0 Z " fill="#26313A" transform="translate(286,440)"/>
<path d="M0 0 C7.59 0 15.18 0 23 0 C23 42.57 23 85.14 23 129 C15.41 129 7.82 129 0 129 C-0.33 125.7 -0.66 122.4 -1 119 C-1.64066406 119.47050781 -2.28132813 119.94101562 -2.94140625 120.42578125 C-14.41720206 128.68630193 -24.7751787 131.50696895 -39 130 C-49.87443112 127.41084973 -58.42479208 120.48170196 -64.375 111.125 C-72.1674862 96.95282964 -74.46107331 81.42372351 -69.96875 65.7421875 C-66.12241455 54.85457666 -58.8552638 45.79862038 -48.6875 40.21875 C-38.28788905 35.50264736 -25.53758101 33.6248361 -14.625 37.625 C-9.61089537 39.93728957 -4.91618904 43.08381096 -1 47 C-0.67 31.49 -0.34 15.98 0 0 Z " fill="#242F39" transform="translate(182,440)"/>
<path d="M0 0 C4.08451509 2.65817649 7.53450087 5.84700087 10.96875 9.28125 C11.58621094 8.75015625 12.20367188 8.2190625 12.83984375 7.671875 C13.68675781 6.96546875 14.53367187 6.2590625 15.40625 5.53125 C16.22996094 4.83515625 17.05367187 4.1390625 17.90234375 3.421875 C24.92216141 -1.4785837 31.24016661 -3.45472694 39.78125 -3.34375 C40.65273682 -3.33682129 41.52422363 -3.32989258 42.42211914 -3.32275391 C51.18544449 -3.02855714 58.78090391 -0.43366383 64.96875 6.03125 C70.03900132 14.27040839 72.05410701 22.27700105 72.28515625 31.87890625 C72.30598267 32.61820374 72.32680908 33.35750122 72.3482666 34.11920166 C72.41418983 36.52728291 72.47311898 38.93546894 72.53125 41.34375 C72.55242889 42.16217377 72.57360779 42.98059753 72.59542847 43.82382202 C72.98654339 58.98216308 73.04984191 74.11706242 72.96875 89.28125 C64.71875 89.28125 56.46875 89.28125 47.96875 89.28125 C47.93136719 85.259375 47.89398437 81.2375 47.85546875 77.09375 C47.81731171 73.86914341 47.77623936 70.64460301 47.7332077 67.4200592 C47.68870799 64.02599377 47.64924074 60.63204718 47.62231445 57.23779297 C47.58866008 53.33531748 47.53633599 49.43346308 47.48046875 45.53125 C47.47407883 44.32573486 47.4676889 43.12021973 47.46110535 41.87817383 C47.32993277 34.31975038 46.94278687 27.90585744 41.96875 21.84375 C37.55439344 18.39503394 32.30866722 18.73751983 26.96875 19.28125 C23.19649508 20.27057723 20.8004267 21.86095998 18.80999756 25.26010132 C15.78927803 32.39551024 15.36742758 38.8177968 15.359375 46.5078125 C15.34283875 47.73664154 15.32630249 48.96547058 15.30926514 50.23153687 C15.26101509 54.12315993 15.23946418 58.01439284 15.21875 61.90625 C15.19057127 64.55861314 15.16064121 67.21095828 15.12890625 69.86328125 C15.05526157 76.33590536 15.00554606 82.80831578 14.96875 89.28125 C7.37875 89.28125 -0.21125 89.28125 -8.03125 89.28125 C-8.04583252 87.56615234 -8.06041504 85.85105469 -8.07543945 84.08398438 C-8.1272638 78.39214099 -8.19259544 72.70055771 -8.26696491 67.00896454 C-8.31153042 63.56101355 -8.35081587 60.11317696 -8.37768555 56.66503906 C-8.40887537 52.69310767 -8.46365877 48.72166378 -8.51953125 44.75 C-8.52592117 43.52261108 -8.5323111 42.29522217 -8.53889465 41.03063965 C-8.62948857 30.27109256 -8.62948857 30.27109256 -14.03125 21.34375 C-18.25782738 19.09838077 -22.33849509 18.56801609 -27.03125 19.28125 C-31.81978933 21.07598526 -35.21236015 23.02732491 -38.03125 27.34375 C-39.49343072 31.63890588 -40.16347217 35.23108784 -40.23657227 39.78417969 C-40.25651749 40.88501892 -40.27646271 41.98585815 -40.29701233 43.12005615 C-40.31372482 44.30246887 -40.33043732 45.48488159 -40.34765625 46.703125 C-40.36843735 47.91824768 -40.38921844 49.13337036 -40.41062927 50.38531494 C-40.47601828 54.26723573 -40.53496051 58.1492242 -40.59375 62.03125 C-40.63694532 64.66276742 -40.68055994 67.29427799 -40.72460938 69.92578125 C-40.83168887 76.37753479 -40.93298659 82.82935641 -41.03125 89.28125 C-48.62125 89.28125 -56.21125 89.28125 -64.03125 89.28125 C-64.03125 59.58125 -64.03125 29.88125 -64.03125 -0.71875 C-56.44125 -0.71875 -48.85125 -0.71875 -41.03125 -0.71875 C-40.70125 2.25125 -40.37125 5.22125 -40.03125 8.28125 C-39.49757813 7.82234375 -38.96390625 7.3634375 -38.4140625 6.890625 C-27.40851264 -2.17276901 -13.59939288 -7.10416046 0 0 Z " fill="#253039" transform="translate(599.03125,478.71875)"/>
<path d="M0 0 C7.19323446 6.43693645 10.25343814 14.54244341 11 24 C11.13239861 28.70881285 11.11645847 33.41464935 11.09765625 38.125 C11.0957878 39.48120064 11.09436592 40.83740196 11.09336853 42.19360352 C11.08957696 45.73795483 11.07977595 49.28226421 11.06866455 52.82659912 C11.05837762 56.45340406 11.05385541 60.08021588 11.04882812 63.70703125 C11.03815018 70.80470614 11.02058117 77.9023459 11 85 C3.41 85 -4.18 85 -12 85 C-12.495 81.535 -12.495 81.535 -13 78 C-13.56847656 78.39832031 -14.13695312 78.79664063 -14.72265625 79.20703125 C-15.49480469 79.73683594 -16.26695312 80.26664063 -17.0625 80.8125 C-17.81660156 81.33457031 -18.57070313 81.85664062 -19.34765625 82.39453125 C-25.85752923 86.33496983 -30.78251938 87.53211284 -38.3125 87.4375 C-39.57271973 87.42614014 -39.57271973 87.42614014 -40.85839844 87.41455078 C-49.89703066 87.17466457 -56.83873397 84.87930444 -63.53125 78.64453125 C-69.48753406 71.97539405 -70.42737485 65.06011007 -70.33984375 56.39453125 C-69.66153826 49.619273 -66.70256174 44.25431762 -61.75 39.625 C-54.77317543 34.43636977 -47.46749903 32.37960715 -38.9375 31.375 C-38.03298096 31.25729248 -37.12846191 31.13958496 -36.1965332 31.01831055 C-33.46581432 30.66582796 -30.73328336 30.33192722 -28 30 C-26.35922122 29.79157161 -24.71858702 29.58200075 -23.078125 29.37109375 C-19.38715931 28.89929517 -15.69440692 28.44416491 -12 28 C-12.68809273 23.28605128 -13.35859462 19.83209347 -16.3125 16 C-21.66308264 12.01817106 -28.56729943 12.49862775 -35 13 C-41.32944195 14.95637297 -41.36289477 16.63506586 -45 23 C-52.26 23 -59.52 23 -67 23 C-65.91977797 13.27800171 -63.97056706 6.84217064 -56.25 0.625 C-41.11795921 -9.62761113 -15.26025113 -11.08864043 0 0 Z " fill="#242F38" transform="translate(512,483)"/>
<path d="M0 0 C11.75535025 8.28844031 18.44252497 19.72755997 22 33.41015625 C22 38.03015625 22 42.65015625 22 47.41015625 C0.22 47.74015625 -21.56 48.07015625 -44 48.41015625 C-41.26450498 57.52847299 -39.59585161 61.93524406 -32.4375 67.34765625 C-25.65917377 69.44277527 -17.95479057 69.75372945 -11.4375 66.66015625 C-9.21961633 65.41537522 -7.91414438 64.30950701 -6.24731445 62.35546875 C-3.41570255 59.90437873 -2.05566243 59.94088684 1.640625 60.01953125 C2.71054687 60.03242187 3.78046875 60.0453125 4.8828125 60.05859375 C5.99398437 60.09210938 7.10515625 60.125625 8.25 60.16015625 C9.37664062 60.17820312 10.50328125 60.19625 11.6640625 60.21484375 C14.44356896 60.26195403 17.2213534 60.32772264 20 60.41015625 C18.35713294 69.22551842 12.87838332 75.80421382 6 81.41015625 C-2.63870762 86.83509983 -11.29668306 88.79372326 -21.375 88.72265625 C-22.21281006 88.7170166 -23.05062012 88.71137695 -23.91381836 88.70556641 C-36.23169396 88.46373427 -46.09882615 84.20837807 -55.1875 75.78515625 C-66.35099416 63.98762997 -68.68220433 51.49753261 -68.37890625 35.89453125 C-67.77748739 23.27982455 -61.74162415 13.78570222 -52.8125 5.22265625 C-48.00549206 1.09657355 -42.89333076 -1.36066657 -37 -3.58984375 C-35.865625 -4.02296875 -34.73125 -4.45609375 -33.5625 -4.90234375 C-22.35864185 -7.06449181 -10.09115464 -5.52911181 0 0 Z " fill="#232E38" transform="translate(748,481.58984375)"/>
<path d="M0 0 C0.70296644 -0.0055344 1.40593288 -0.01106879 2.13020134 -0.0167709 C4.48576078 -0.03038445 6.8402619 -0.01540546 9.19580078 -0.00050354 C10.88446503 -0.00428648 12.57312618 -0.00978632 14.26177979 -0.01687622 C18.84857374 -0.0308514 23.43499345 -0.01964666 28.02176666 -0.00316501 C32.81920169 0.01067331 37.61661472 0.00422681 42.4140625 0.0007019 C50.47092733 -0.00200118 58.52764326 0.01148386 66.58447266 0.03465271 C75.90263395 0.06126307 85.22054626 0.06300991 94.53873253 0.05126435 C103.4982052 0.04048947 112.45758771 0.04667135 121.41705322 0.06081963 C125.23197559 0.06658195 129.04683203 0.06649481 132.86175537 0.06175423 C137.35321451 0.05698596 141.84440061 0.0670798 146.3358078 0.08870888 C147.98538034 0.09427899 149.63497911 0.09473999 151.28455353 0.08975601 C153.53408204 0.08381114 155.78277352 0.09629197 158.03222656 0.11352539 C159.92148361 0.11717023 159.92148361 0.11717023 161.84890747 0.12088871 C165.01611328 0.50120544 165.01611328 0.50120544 169.01611328 3.50120544 C169.01611328 10.10120544 169.01611328 16.70120544 169.01611328 23.50120544 C109.61611328 23.50120544 50.21611328 23.50120544 -10.98388672 23.50120544 C-10.98388672 0.00182512 -10.98388672 0.00182512 0 0 Z " fill="#FEFEFE" transform="translate(751.98388671875,427.49879455566406)"/>
<path d="M0 0 C0.02712351 2.39591038 0.0468982 4.79150957 0.0625 7.1875 C0.07087891 7.86103516 0.07925781 8.53457031 0.08789062 9.22851562 C0.10606538 12.95434131 -0.10700608 16.3788042 -1 20 C-1.58007812 20.02578125 -2.16015625 20.0515625 -2.7578125 20.078125 C-8.19175751 20.47266886 -11.76776999 21.2838956 -16 25 C-18.04286057 28.69660484 -18.27971456 31.67828738 -19 36 C-12.4 36 -5.8 36 1 36 C1 42.27 1 48.54 1 55 C-5.6 55 -12.2 55 -19 55 C-19 78.76 -19 102.52 -19 127 C-26.26 127 -33.52 127 -41 127 C-41 103.24 -41 79.48 -41 55 C-45.62 55 -50.24 55 -55 55 C-55 48.73 -55 42.46 -55 36 C-50.38 36 -45.76 36 -41 36 C-41.05800781 34.88882813 -41.11601562 33.77765625 -41.17578125 32.6328125 C-41.79189528 15.98275225 -41.79189528 15.98275225 -36 9 C-25.59233607 -0.58816283 -13.28516094 -0.41612453 0 0 Z " fill="#26313A" transform="translate(375,442)"/>
<path d="M0 0 C-0.27714844 1.24136719 -0.55429687 2.48273438 -0.83984375 3.76171875 C-1.20575752 5.40363951 -1.57164136 7.04556695 -1.9375 8.6875 C-2.11990234 9.50412109 -2.30230469 10.32074219 -2.49023438 11.16210938 C-3.36727628 15.10082483 -4.23340455 19.03791195 -5 23 C-6.28583984 23.14695312 -6.28583984 23.14695312 -7.59765625 23.296875 C-16.95834082 24.47977788 -16.95834082 24.47977788 -25 29 C-28.85365578 34.08682563 -30.09903712 38.97189883 -30.20532227 45.22753906 C-30.22526749 46.26831604 -30.24521271 47.30909302 -30.26576233 48.38140869 C-30.29083107 50.05659576 -30.29083107 50.05659576 -30.31640625 51.765625 C-30.33718735 52.91415955 -30.35796844 54.06269409 -30.37937927 55.24603271 C-30.44474993 58.91396111 -30.50370194 62.58196093 -30.5625 66.25 C-30.60569707 68.73698654 -30.64931175 71.22396587 -30.69335938 73.7109375 C-30.80120415 79.80721953 -30.90037105 85.90355599 -31 92 C-38.59 92 -46.18 92 -54 92 C-54 62.3 -54 32.6 -54 2 C-46.74 2 -39.48 2 -32 2 C-31.67 4.97 -31.34 7.94 -31 11 C-30.53851563 10.54109375 -30.07703125 10.0821875 -29.6015625 9.609375 C-20.48353766 1.03194452 -12.36044195 -0.6974544 0 0 Z " fill="#232E38" transform="translate(441,476)"/>
<path d="M0 0 C4.83993714 2.96996143 7.11314992 6.75453478 9 12 C9.49461137 15.37654241 9.47252756 18.65673495 9.375 22.0625 C9.37371094 22.92166016 9.37242187 23.78082031 9.37109375 24.66601562 C9.2828443 31.08371192 8.96801955 36.72124052 4.625 41.75 C3.325625 42.86375 3.325625 42.86375 2 44 C1.360625 44.556875 0.72125 45.11375 0.0625 45.6875 C-6.32772361 49.75400593 -13.9853224 50.10099268 -21.27734375 48.5 C-27.82653681 46.28760465 -32.31126707 42.62966021 -35.875 36.75 C-39.43450599 29.07805505 -39.36325348 19.46103306 -37.3359375 11.33984375 C-34.61150318 5.19209847 -29.46263052 1.44860619 -23.8125 -1.875 C-15.55766678 -4.31085242 -7.69710974 -3.78103636 0 0 Z " fill="#FCFDFD" transform="translate(173,500)"/>
<path d="M0 0 C3.72855 2.84692242 5.61034482 5.56388274 7.2734375 9.8984375 C7.72937299 13.69691543 7.73775037 17.45138412 7.7109375 21.2734375 C7.7409082 22.77777344 7.7409082 22.77777344 7.77148438 24.3125 C7.7673245 30.66878592 7.08456132 35.67587539 3.2734375 40.8984375 C1.01953125 42.95703125 1.01953125 42.95703125 -1.2890625 44.3359375 C-2.05347656 44.80902344 -2.81789063 45.28210938 -3.60546875 45.76953125 C-9.55209086 48.93449219 -16.92865747 48.9940962 -23.33984375 47.14453125 C-30.10656809 44.24450653 -35.29989625 40.54562454 -38.76953125 33.92578125 C-41.08660296 26.59626871 -41.2217333 17.5025097 -38.83984375 10.16796875 C-37.64159036 8.10983917 -36.41219531 6.57553546 -34.7265625 4.8984375 C-34.20707031 4.34027344 -33.68757812 3.78210938 -33.15234375 3.20703125 C-24.04440445 -5.60367926 -10.6202015 -6.77578467 0 0 Z " fill="#FDFDFD" transform="translate(279.7265625,501.1015625)"/>
<path d="M0 0 C1.875 1 1.875 1 3 3 C3.52378711 9.97864872 1.94500938 15.92979306 0.04296875 22.61328125 C-0.26066086 23.7046489 -0.56429047 24.79601654 -0.87712097 25.92045593 C-1.51853849 28.21540843 -2.16514756 30.50891557 -2.81665039 32.80102539 C-3.8130432 36.31441538 -4.78742269 39.83340357 -5.75976562 43.35351562 C-6.38671349 45.586305 -7.01492494 47.81874005 -7.64453125 50.05078125 C-7.9352803 51.10388992 -8.22602936 52.1569986 -8.52558899 53.24201965 C-8.80565292 54.21700912 -9.08571686 55.1919986 -9.37426758 56.1965332 C-9.61631424 57.05398636 -9.8583609 57.91143951 -10.10774231 58.7948761 C-11.08501225 61.21009911 -11.92213423 62.43707771 -14 64 C-17.5625 64.3125 -17.5625 64.3125 -21 64 C-23.43120763 61.56879237 -23.29077686 60.90819012 -23.29833984 57.56982422 C-23.17415101 51.72692925 -21.83921628 46.47264088 -20.2265625 40.8828125 C-19.94275726 39.86323456 -19.65895203 38.84365662 -19.36654663 37.79318237 C-18.76894834 35.65534891 -18.1652304 33.51921744 -17.55566406 31.38476562 C-16.62268579 28.11689421 -15.70821508 24.84427723 -14.796875 21.5703125 C-14.21199976 19.4866807 -13.62609827 17.40333663 -13.0390625 15.3203125 C-12.76502594 14.34426056 -12.49098938 13.36820862 -12.20864868 12.36257935 C-11.94852997 11.45418304 -11.68841125 10.54578674 -11.42041016 9.60986328 C-11.19390778 8.81395782 -10.9674054 8.01805237 -10.73403931 7.19802856 C-8.63360371 0.90842335 -6.82242755 -0.55693286 0 0 Z " fill="#0479EC" transform="translate(860,505)"/>
<path d="M0 0 C4.37250315 1.7038143 7.23589198 5.70679016 10.25805664 9.1574707 C10.96446289 9.93864258 11.67086914 10.71981445 12.39868164 11.5246582 C13.71014 12.97521063 15.01468249 14.43206883 16.30981445 15.8972168 C17.9333898 17.78922403 17.9333898 17.78922403 19.72973633 19.21850586 C21.00805664 20.7824707 21.00805664 20.7824707 21.40332031 23.21801758 C20.91084521 26.41317411 19.92764506 27.51470313 17.68383789 29.8137207 C16.98452148 30.54204102 16.28520508 31.27036133 15.56469727 32.02075195 C14.45384766 33.14030273 14.45384766 33.14030273 13.32055664 34.2824707 C12.23871094 35.40202148 12.23871094 35.40202148 11.13500977 36.54418945 C9.73431549 37.98965478 8.32634571 39.42811355 6.91040039 40.85864258 C5.7508186 42.03132026 4.59994168 43.21279952 3.46508789 44.40942383 C0.29258789 47.72827427 0.29258789 47.72827427 -2.61694336 48.2824707 C-4.99194336 47.7824707 -4.99194336 47.7824707 -6.80444336 46.7199707 C-8.19227092 44.45562047 -8.76874142 42.55785664 -8.68334961 39.88793945 C-7.06706072 34.96602017 -2.59840405 31.34532997 1.00805664 27.7824707 C1.59973633 27.18950195 2.19141602 26.5965332 2.80102539 25.9855957 C3.1993457 25.58856445 3.59766602 25.1915332 4.00805664 24.7824707 C2.62611164 20.5158099 0.68645877 18.15900177 -2.55444336 15.0949707 C-7.88673869 10.01862555 -7.88673869 10.01862555 -8.24194336 5.8449707 C-7.99194336 2.7824707 -7.99194336 2.7824707 -6.92944336 0.8449707 C-4.50802581 -0.48290344 -2.69693412 -0.4394254 0 0 Z " fill="#0479EC" transform="translate(880.991943359375,512.217529296875)"/>
<path d="M0 0 C1 1 1 1 1.44140625 4.671875 C1.39861991 8.16012899 0.77806548 9.77318564 -1.66015625 12.265625 C-2.77510684 13.28184915 -3.91003759 14.27652337 -5.0625 15.25 C-7.19706435 17.09790255 -9.07319169 18.91535423 -11 21 C-10.53325819 26.02545824 -6.32045006 29.01821426 -2.86132812 32.31445312 C-0.03707031 35.19053218 0.96771768 36.70641363 1.4140625 40.765625 C1 44 1 44 -0.1875 45.9375 C-2.63732556 47.37360464 -4.19021818 47.27579874 -7 47 C-8.84936523 45.73413086 -8.84936523 45.73413086 -10.55859375 43.96484375 C-11.19216797 43.31966797 -11.82574219 42.67449219 -12.47851562 42.00976562 C-13.12498047 41.32591797 -13.77144531 40.64207031 -14.4375 39.9375 C-15.08009766 39.28072266 -15.72269531 38.62394531 -16.38476562 37.94726562 C-18.28466517 35.98950112 -20.145491 34.00072129 -22 32 C-22.59699707 31.37883301 -23.19399414 30.75766602 -23.80908203 30.11767578 C-26.11841874 27.6171935 -27.77670608 25.74814973 -28.7578125 22.4609375 C-27.55334831 18.54953318 -24.82990312 16.35260288 -21.875 13.625 C-20.67653814 12.47849037 -19.47989939 11.33007177 -18.28515625 10.1796875 C-17.71297363 9.63280273 -17.14079102 9.08591797 -16.55126953 8.52246094 C-14.68542813 6.69127004 -12.9791042 4.76329129 -11.3125 2.75 C-7.53693634 -1.73985949 -5.59162849 -1.01665972 0 0 Z " fill="#0378EC" transform="translate(826,513)"/>
<path d="M0 0 C0.61492759 10.55625696 0.61492759 10.55625696 -1.4375 15.375 C-7.09015403 21.16552364 -13.1098553 25.09693949 -21.3125 25.3125 C-26.33897959 25.2726073 -29.16262599 24.44379719 -33 21 C-35.4915904 17.2626144 -35.45793285 15.42668417 -35 11 C-32.58260087 6.27508352 -28.91715067 4.61024399 -24.12890625 2.84765625 C-16.38392709 0.74945341 -8.01277901 -0.18598327 0 0 Z " fill="#FBFBFB" transform="translate(500,527)"/>
<path d="M0 0 C4.765115 2.99471183 7.90083222 6.85735036 9.48828125 12.265625 C9.69453125 13.27625 9.90078125 14.286875 10.11328125 15.328125 C9.11328125 16.328125 9.11328125 16.328125 5.14428711 16.44165039 C3.37222518 16.4414912 1.60015865 16.43579285 -0.171875 16.42578125 C-1.10269394 16.4243663 -2.03351288 16.42295135 -2.99253845 16.42149353 C-5.97813066 16.41587672 -8.96364904 16.4033214 -11.94921875 16.390625 C-13.96809788 16.38561216 -15.98697818 16.38104888 -18.00585938 16.37695312 C-22.96617447 16.36590183 -27.92643407 16.34862595 -32.88671875 16.328125 C-31.63487029 8.99055781 -27.85543183 4.65836782 -21.88671875 0.328125 C-14.12478261 -3.84032219 -7.74808543 -3.8004426 0 0 Z " fill="#FBFBFB" transform="translate(736.88671875,497.671875)"/>
<path d="M0 0 C0.33 0 0.66 0 1 0 C1 23.1 1 46.2 1 70 C7.27 70 13.54 70 20 70 C20 47.23 20 24.46 20 1 C20.66 0.67 21.32 0.34 22 0 C22 23.76 22 47.52 22 72 C14.74 72 7.48 72 0 72 C0 48.24 0 24.48 0 0 Z " fill="#0B1118" transform="translate(334,497)"/>
<path d="M0 0 C0.33 0 0.66 0 1 0 C1 42.24 1 84.48 1 128 C-6.59 128 -14.18 128 -22 128 C-22 124.37 -22 120.74 -22 117 C-21.67 117 -21.34 117 -21 117 C-21 119.97 -21 122.94 -21 126 C-14.4 126 -7.8 126 -1 126 C-1.00580078 124.64479248 -1.01160156 123.28958496 -1.01757812 121.89331055 C-1.08230793 98.34522971 -0.78702971 74.79977417 -0.53643799 51.25341797 C-0.47508764 45.45997159 -0.4153544 39.66650854 -0.35546875 33.87304688 C-0.23852585 22.58201475 -0.11984391 11.29100168 0 0 Z " fill="#30373E" transform="translate(309,441)"/>
<path d="M0 0 C2.31 0 4.62 0 7 0 C6.72285156 1.24136719 6.44570313 2.48273438 6.16015625 3.76171875 C5.79424248 5.40363951 5.42835864 7.04556695 5.0625 8.6875 C4.88009766 9.50412109 4.69769531 10.32074219 4.50976562 11.16210938 C3.63272372 15.10082483 2.76659545 19.03791195 2 23 C1.13117188 23.12117188 0.26234375 23.24234375 -0.6328125 23.3671875 C-1.78523438 23.53476562 -2.93765625 23.70234375 -4.125 23.875 C-5.26195312 24.03742188 -6.39890625 24.19984375 -7.5703125 24.3671875 C-10.86078915 24.97431417 -13.85779103 25.86345633 -17 27 C-14.59583028 24.21622453 -12.55155842 22.98234594 -9 22 C-5.65933154 21.84116454 -2.34152226 21.88320893 1 22 C1.03738281 21.39414062 1.07476562 20.78828125 1.11328125 20.1640625 C1.6140761 13.78138306 2.95064686 8.05783632 5 2 C2.525 1.505 2.525 1.505 0 1 C0 0.67 0 0.34 0 0 Z " fill="#070B11" transform="translate(434,476)"/>
<path d="M0 0 C0.33 0 0.66 0 1 0 C1 3.3 1 6.6 1 10 C7.6 10 14.2 10 21 10 C21 10.66 21 11.32 21 12 C13.74 12 6.48 12 -1 12 C-0.67 8.04 -0.34 4.08 0 0 Z " fill="#0F1821" transform="translate(183,557)"/>
<path d="M0 0 C0.99 0.33 1.98 0.66 3 1 C2.67 1.66 2.34 2.32 2 3 C1.76725791 5.87910588 1.58027243 8.74146495 1.4375 11.625 C1.39431641 12.42679687 1.35113281 13.22859375 1.30664062 14.0546875 C1.20048543 16.0362511 1.09973145 18.01810271 1 20 C0.67 20 0.34 20 0 20 C-0.19594676 16.85463232 -0.3803401 13.70869386 -0.5625 10.5625 C-0.61857422 9.66466797 -0.67464844 8.76683594 -0.73242188 7.84179688 C-0.78076172 6.98779297 -0.82910156 6.13378906 -0.87890625 5.25390625 C-0.9260376 4.46314697 -0.97316895 3.6723877 -1.02172852 2.85766602 C-1 1 -1 1 0 0 Z " fill="#0266E9" transform="translate(740,429)"/>
</svg>
